<?xml version="1.0" standalone="no"?>
<!DOCTYPE svg PUBLIC "-//W3C//DTD SVG 20010904//EN"
 "http://www.w3.org/TR/2001/REC-SVG-20010904/DTD/svg10.dtd">
<svg version="1.0" xmlns="http://www.w3.org/2000/svg"
 width="320.000000pt" height="320.000000pt" viewBox="0 0 320.000000 320.000000"
 preserveAspectRatio="xMidYMid meet">
<metadata>
Created by potrace 1.14, written by Peter Selinger 2001-2017
</metadata>
<g transform="translate(0.000000,320.000000) scale(0.100000,-0.100000)"
fill="#000000" stroke="none">
<path d="M1365 3016 c-488 -81 -901 -411 -1090 -871 -151 -365 -135 -808 42
-1160 54 -106 163 -268 163 -241 0 3 -22 38 -48 78 -123 185 -190 349 -228
561 -19 107 -19 347 0 457 56 316 192 571 426 793 197 187 432 309 706 364
135 27 415 24 551 -5 280 -60 509 -186 713 -391 202 -203 320 -416 382 -692
31 -138 33 -436 5 -569 -46 -214 -128 -394 -267 -588 -17 -23 -27 -42 -23 -42
4 0 36 39 70 88 114 160 201 364 240 567 25 134 23 388 -5 521 -60 281 -175
502 -365 701 -206 215 -435 346 -727 415 -111 25 -425 34 -545 14z"/>
<path d="M1482 2939 c-576 -49 -1059 -475 -1183 -1044 -29 -133 -35 -325 -15
-461 42 -285 160 -524 363 -735 191 -198 416 -321 695 -380 146 -31 371 -31
518 0 463 98 836 421 993 857 51 143 71 265 71 439 0 287 -66 510 -222 743
-91 136 -274 320 -292 293 -5 -9 -10 -10 -14 -2 -4 6 -2 11 3 11 26 0 5 19
-76 70 -48 30 -98 61 -111 67 -57 30 -214 88 -292 109 -77 19 -118 25 -290 38
-25 2 -91 0 -148 -5z m398 -38 c47 -10 121 -32 165 -48 77 -28 80 -31 83 -64
1 -19 7 -46 13 -61 15 -37 80 -78 125 -78 57 0 37 -7 -41 -14 -76 -7 -105 -26
-105 -71 0 -12 -6 -35 -14 -51 -8 -16 -17 -52 -21 -81 -7 -51 -7 -52 -48 -58
-80 -12 -107 -25 -113 -53 -4 -15 -17 -46 -31 -70 -13 -24 -23 -53 -22 -65 2
-12 -4 -33 -13 -47 -14 -20 -15 -33 -8 -62 6 -21 14 -54 19 -75 5 -20 19 -45
30 -56 17 -17 23 -18 48 -8 15 6 43 27 62 46 28 29 41 35 76 35 52 0 62 -9 31
-29 -13 -9 -42 -29 -66 -44 -36 -25 -41 -33 -38 -57 4 -26 -2 -34 -49 -67 -53
-38 -83 -83 -83 -123 0 -25 73 -135 99 -149 10 -6 45 -10 79 -9 52 1 68 -4
111 -31 56 -36 75 -33 118 18 l22 26 -6 -75 c-6 -71 -9 -78 -55 -135 -52 -65
-66 -108 -52 -164 8 -34 12 -36 49 -37 22 0 46 -2 53 -2 16 -2 15 -250 -1
-481 l-12 -164 -95 -48 c-181 -92 -379 -139 -581 -139 -119 0 -229 9 -229 20
0 3 21 13 48 21 39 12 53 23 79 63 18 27 50 68 72 90 46 47 51 78 26 162 -11
39 -12 56 -3 87 7 23 8 41 2 47 -13 13 -91 -26 -110 -55 -15 -22 -37 -35 -74
-41 -8 -2 -24 -14 -35 -28 -12 -15 -26 -26 -32 -26 -5 0 -23 -10 -38 -22 l-28
-22 5 67 c5 56 11 74 42 116 61 83 197 204 250 223 48 16 48 16 41 -5 -13 -44
-17 -163 -6 -202 13 -49 89 -137 132 -155 27 -11 36 -11 63 3 17 9 50 21 73
27 58 15 88 58 88 128 0 43 3 52 18 52 34 0 85 28 93 52 10 32 7 119 -6 154
-6 16 -20 38 -30 49 -10 11 -21 31 -25 45 -18 62 -73 96 -173 106 -40 3 -75
10 -77 15 -3 4 5 27 17 51 34 63 31 185 -6 288 -34 96 -71 142 -122 154 -21 4
-57 14 -79 22 -70 24 -86 19 -148 -46 -34 -35 -57 -68 -57 -81 l0 -22 -22 21
c-31 28 -121 69 -186 84 l-53 11 71 72 c105 106 134 199 90 291 -29 60 -99
121 -147 129 -21 3 -57 13 -80 21 -62 22 -106 7 -172 -60 -29 -30 -59 -52 -67
-49 -7 2 -22 -5 -33 -16 -17 -17 -21 -33 -21 -91 0 -65 28 -199 50 -241 22
-40 6 -28 -72 53 -146 151 -199 168 -273 90 -79 -83 -110 -195 -81 -294 9 -31
16 -67 16 -80 0 -49 31 -63 141 -63 54 0 99 -1 99 -2 0 -2 -18 -15 -41 -30
-22 -14 -52 -46 -65 -70 -14 -23 -38 -48 -52 -55 -34 -16 -40 -66 -18 -141 8
-28 12 -54 7 -57 -23 -16 -33 -79 -22 -141 0 -4 9 -9 19 -11 15 -4 18 -12 14
-37 -2 -17 -8 -31 -11 -31 -9 0 -80 149 -111 230 -58 154 -87 384 -70 555 62
625 535 1110 1160 1189 84 10 347 -3 430 -23z m432 -180 c81 -51 77 -60 -30
-53 -54 3 -67 8 -97 37 -28 25 -35 40 -35 69 l0 36 53 -26 c28 -14 78 -42 109
-63z m82 -87 c9 -3 16 -15 16 -27 0 -19 -1 -20 -20 -2 -30 27 -28 41 4 29z
m-34 -19 c10 -12 9 -20 -6 -42 -11 -18 -17 -44 -16 -79 2 -61 -14 -78 -97
-113 -37 -16 -64 -21 -87 -16 -35 6 -68 31 -59 45 3 5 7 27 9 50 2 22 8 46 14
53 5 7 12 29 16 50 8 42 14 46 89 57 86 12 124 11 137 -5z m94 -16 c-10 -16
-24 -9 -24 12 0 18 2 19 15 9 8 -7 12 -16 9 -21z m9 -17 c17 9 24 7 41 -15 96
-117 108 -138 86 -152 -5 -3 -10 -15 -10 -25 0 -22 -79 -110 -100 -110 -7 0
-29 10 -47 23 l-33 22 2 81 c2 64 -2 87 -16 109 -11 16 -15 36 -12 50 5 21 9
23 37 15 21 -6 39 -6 52 2z m-75 -133 c3 -34 1 -50 -5 -46 -11 7 -33 83 -33
114 0 16 1 16 16 1 10 -9 19 -40 22 -69z m301 -95 c28 -42 51 -80 51 -84 0 -5
-19 -18 -43 -29 -35 -17 -49 -19 -80 -10 -35 9 -37 12 -37 52 0 68 27 147 50
147 4 0 30 -34 59 -76z m-352 20 c-3 -20 -7 -37 -9 -39 -2 -1 -30 1 -63 4
l-60 6 52 23 c28 12 55 27 58 32 15 24 27 8 22 -26z m38 -71 c1 -24 -1 -43 -5
-43 -11 0 -20 39 -20 85 1 35 2 38 12 20 6 -11 12 -39 13 -62z m-267 39 c3
-20 0 -22 -32 -20 -26 1 -41 -4 -56 -20 -12 -12 -25 -22 -31 -22 -6 0 -9 -10
-7 -22 3 -23 -24 -53 -69 -76 -32 -18 -35 5 -7 55 13 23 25 52 27 65 4 25 38
47 77 49 14 0 34 4 45 9 31 14 50 7 53 -18z m220 -49 c27 -30 28 -43 1 -77
-19 -24 -27 -26 -78 -25 -32 1 -66 -4 -77 -11 -25 -15 -59 -8 -94 19 l-25 20
33 33 c17 19 32 39 32 45 0 23 36 32 110 27 63 -5 79 -10 98 -31z m235 2 c-8
-40 5 -75 28 -75 11 0 29 -5 40 -10 14 -8 27 -7 49 5 35 18 38 10 10 -25 -27
-34 -25 -73 7 -131 29 -53 49 -61 78 -29 53 59 96 -18 125 -222 16 -109 13
-310 -5 -413 -43 -241 -157 -475 -316 -649 -66 -72 -206 -196 -221 -196 -4 0
-8 144 -8 320 0 187 4 320 9 320 5 0 14 -23 21 -52 16 -76 44 -102 88 -79 9 5
28 14 42 20 41 19 69 37 93 59 12 11 39 27 60 36 42 17 42 17 -4 76 -15 19
-32 51 -38 71 -13 41 -84 120 -130 143 -31 17 -108 19 -127 4 -8 -6 -13 12
-16 60 -8 114 -4 124 62 160 31 18 60 32 64 32 15 0 4 -18 -18 -28 -33 -15
-64 -105 -44 -130 22 -29 31 -32 93 -32 l61 0 2 -32 c3 -40 27 -78 48 -78 9 0
34 18 56 40 32 32 39 45 35 67 -3 15 1 32 8 39 6 7 15 38 19 70 5 48 4 60 -13
78 -29 32 -21 69 17 77 72 15 80 51 23 97 -29 23 -38 37 -34 52 6 23 -5 25
-42 8 -22 -10 -28 -9 -36 3 -8 11 -15 7 -39 -21 -17 -19 -30 -38 -30 -42 0 -4
-8 -8 -19 -8 -26 0 -45 -27 -43 -60 2 -24 -5 -31 -57 -59 -32 -17 -62 -31 -65
-31 -4 0 -4 11 0 25 3 13 -1 48 -11 77 -14 47 -15 77 -6 261 5 115 11 211 14
213 2 2 15 -5 29 -15 46 -37 72 -36 104 2 33 38 44 39 37 2z m-503 6 c0 -6 -4
-13 -10 -16 -5 -3 -10 1 -10 9 0 9 5 16 10 16 6 0 10 -4 10 -9z m40 -11 c0 -5
-4 -10 -10 -10 -5 0 -10 5 -10 10 0 6 5 10 10 10 6 0 10 -4 10 -10z m-997 -43
c92 -24 164 -93 180 -172 10 -52 -21 -141 -69 -194 -62 -69 -148 -132 -206
-152 -58 -19 -74 -17 -81 12 -3 11 -15 23 -26 26 -24 6 -39 49 -48 141 -3 34
-10 62 -16 62 -11 0 -3 -67 19 -154 8 -32 13 -60 10 -63 -9 -10 -47 79 -71
169 -38 143 -32 228 18 228 14 0 39 17 62 41 81 84 101 89 228 56z m917 13 c0
-5 -7 -10 -16 -10 -8 0 -12 5 -9 10 3 6 10 10 16 10 5 0 9 -4 9 -10z m50 1 c0
-12 -20 -25 -27 -18 -7 7 6 27 18 27 5 0 9 -4 9 -9z m294 -134 c-5 -76 -11
-118 -19 -121 -12 -4 -150 113 -141 121 2 2 32 -18 67 -46 34 -28 66 -48 71
-45 4 3 8 42 8 87 0 77 8 133 16 124 3 -2 1 -56 -2 -120z m406 96 c7 -16 25
-58 41 -96 28 -67 28 -67 6 -61 -16 3 -29 -2 -41 -15 -29 -32 -43 -26 -72 31
l-26 52 20 41 c11 22 23 48 26 58 8 26 31 21 46 -10z m-735 -3 c-3 -5 -15 -10
-26 -10 -11 0 -17 5 -14 10 3 6 15 10 26 10 11 0 17 -4 14 -10z m10 -65 c-8
-22 -14 -60 -15 -85 0 -41 -4 -48 -46 -82 -26 -21 -53 -38 -60 -38 -13 0 -32
27 -39 58 -3 9 -9 35 -14 57 -6 22 -8 47 -6 55 6 20 105 75 127 72 10 -2 26 1
35 7 27 15 34 0 18 -44z m291 -36 c0 -32 -4 -59 -9 -59 -17 0 -137 103 -131
112 3 5 30 6 59 3 36 -5 55 -3 60 5 13 20 20 0 21 -61z m-223 46 c20 -8 42
-12 49 -10 15 6 38 -45 38 -82 0 -31 -34 -57 -59 -44 -11 6 -36 11 -57 11
l-37 0 6 59 c4 53 12 81 21 81 2 0 20 -7 39 -15z m217 -208 l0 -31 -33 32
c-28 27 -41 32 -80 32 -26 0 -47 2 -47 5 0 2 11 15 25 29 14 14 25 32 25 41 0
12 17 2 55 -30 45 -39 55 -53 55 -78z m26 -55 c-11 -10 -12 3 -7 53 l6 50 3
-49 c2 -26 1 -51 -2 -54z m-1746 63 c39 -25 82 -66 171 -162 44 -48 46 -52 43
-103 -2 -30 1 -59 7 -66 7 -8 -2 -19 -33 -37 -82 -48 -226 -74 -310 -56 -66
14 -78 24 -78 63 0 17 -7 53 -15 81 -21 70 -6 137 49 218 63 91 98 105 166 62z
m1638 9 l24 -5 -24 -23 c-12 -12 -28 -31 -34 -42 -10 -15 -14 -17 -25 -6 -22
21 -85 15 -101 -10 -11 -16 -20 -20 -41 -14 -33 8 -35 31 -4 47 12 7 37 25 55
40 33 29 60 31 150 13z m114 -132 c22 -46 21 -89 -2 -147 l-12 -30 -21 29
c-12 16 -45 52 -73 81 -45 46 -49 54 -38 70 7 10 11 22 8 26 -8 14 24 67 43
72 22 5 66 -42 95 -101z m258 52 c-45 -52 -36 -52 20 0 51 48 70 56 70 31 0
-8 16 -27 35 -42 19 -15 35 -36 35 -46 0 -23 -32 -34 -141 -48 -76 -10 -104
-19 -172 -55 -86 -47 -120 -54 -40 -8 102 58 114 67 130 97 29 59 74 117 84
111 5 -3 -4 -21 -21 -40z m-485 -4 c3 -5 1 -10 -4 -10 -6 0 -11 5 -11 10 0 6
2 10 4 10 3 0 8 -4 11 -10z m-25 -29 c0 -6 -4 -13 -10 -16 -5 -3 -10 1 -10 9
0 9 5 16 10 16 6 0 10 -4 10 -9z m58 -3 c19 -19 14 -28 -18 -28 -16 0 -30 4
-30 8 0 9 21 32 30 32 3 0 11 -5 18 -12z m40 1 c-2 -6 -8 -10 -13 -10 -5 0
-11 4 -13 10 -2 6 4 11 13 11 9 0 15 -5 13 -11z m342 -20 c-7 -11 -14 -18 -17
-15 -8 8 5 36 17 36 7 0 7 -6 0 -21z m-465 -5 l25 -16 -21 -26 c-16 -21 -20
-39 -18 -82 1 -30 1 -76 1 -101 -2 -43 -4 -47 -33 -53 -38 -7 -64 11 -107 77
-51 78 -44 110 39 176 56 45 77 49 114 25z m137 -51 c41 -44 74 -104 82 -153
8 -40 -17 -88 -58 -116 -25 -15 -27 -15 -73 15 -25 17 -54 31 -63 31 -27 0
-31 47 -11 137 21 92 25 101 55 113 31 13 29 13 68 -27z m-602 -10 c87 -18
112 -44 154 -161 36 -100 36 -205 1 -280 l-24 -52 -40 6 c-34 5 -40 3 -46 -15
-8 -27 -19 -27 -45 2 -50 52 -63 85 -56 140 6 47 4 57 -20 92 -14 22 -42 57
-60 77 -18 21 -36 49 -40 63 -9 36 3 89 28 120 22 29 37 29 148 8z m1064 -1
c3 -5 1 -25 -5 -44 -8 -31 -13 -35 -32 -30 -12 3 -26 10 -30 16 -6 7 -7 4 -3
-7 3 -11 0 -20 -10 -24 -21 -8 -66 36 -62 62 2 16 13 21 53 26 80 9 84 9 89 1z
m-1774 -37 c0 -9 -6 -12 -15 -9 -8 4 -12 10 -9 15 8 14 24 10 24 -6z m253 -1
c83 -19 178 -66 210 -104 13 -14 29 -45 36 -68 13 -40 13 -44 -7 -72 -12 -16
-22 -40 -22 -53 0 -32 -26 -94 -56 -134 -29 -38 -116 -67 -231 -78 -65 -5 -74
-4 -93 15 -15 15 -20 29 -16 48 3 15 8 65 11 112 5 76 3 94 -23 168 -16 46
-25 85 -20 88 4 3 8 13 8 23 0 13 10 21 33 25 17 3 46 15 62 25 37 24 24 24
108 5z m1367 6 c0 -5 -5 -10 -11 -10 -5 0 -7 5 -4 10 3 6 8 10 11 10 2 0 4 -4
4 -10z m-1672 -32 c-6 -18 -28 -21 -28 -4 0 9 7 16 16 16 9 0 14 -5 12 -12z
m42 -13 c0 -8 -9 -15 -20 -15 -13 0 -18 5 -14 15 4 8 12 15 20 15 8 0 14 -7
14 -15z m40 -16 c0 -11 -7 -19 -16 -19 -11 0 -14 5 -10 16 3 9 6 20 6 25 0 6
5 7 10 4 6 -3 10 -15 10 -26z m485 12 c-8 -27 17 -83 63 -139 56 -67 64 -86
57 -136 l-7 -44 -49 30 c-56 36 -81 68 -68 89 13 21 10 71 -6 99 -15 26 -20
101 -8 113 13 14 24 6 18 -12z m1294 5 c8 -10 8 -21 1 -40 -5 -15 -10 -38 -10
-52 0 -38 -18 -28 -25 14 -9 51 -9 55 -1 75 10 21 20 22 35 3z m-141 -32 l42
-35 -20 -39 c-17 -34 -24 -39 -67 -45 -51 -7 -100 6 -109 28 -2 7 1 31 8 53
10 28 23 44 48 56 47 24 50 23 98 -18z m-1718 -4 c0 -5 -4 -10 -10 -10 -5 0
-10 5 -10 10 0 6 5 10 10 10 6 0 10 -4 10 -10z m1468 -123 c-1 -133 -6 -118
-10 35 -2 53 0 94 5 91 4 -2 6 -59 5 -126z m302 123 c0 -5 -4 -10 -10 -10 -5
0 -10 5 -10 10 0 6 5 10 10 10 6 0 10 -4 10 -10z m-1729 -15 c-1 -15 -24 -12
-29 3 -3 9 2 13 12 10 10 -1 17 -7 17 -13z m59 -91 c19 -65 22 -92 18 -178
-10 -208 -75 -262 -240 -203 -35 13 -72 28 -81 33 -25 14 -97 104 -97 121 0
27 61 158 87 185 14 14 41 29 61 33 21 4 64 22 98 41 33 19 70 34 82 34 11 0
24 5 27 10 12 19 22 2 45 -76z m1719 16 c6 -28 11 -56 11 -61 0 -10 -61 -73
-64 -67 -1 2 -7 14 -14 28 -11 25 -11 25 -6 -5 l5 -30 -15 25 c-22 37 -19 61
14 113 39 61 55 60 69 -3z m-2089 -114 c0 -2 -9 -25 -20 -51 -27 -63 -25 -97
6 -135 15 -17 25 -32 23 -33 -2 -2 -21 -15 -42 -31 -21 -15 -44 -25 -52 -22
-19 7 -48 111 -41 142 4 14 17 29 30 34 13 4 35 29 50 54 15 25 31 46 36 46 6
0 10 -2 10 -4z m897 -72 c29 -20 63 -50 75 -66 l21 -30 -24 7 c-13 4 -54 20
-92 37 -37 16 -72 26 -77 23 -12 -8 -12 -7 1 57 11 52 12 52 27 30 8 -13 39
-39 69 -58z m993 66 c8 -5 11 -12 7 -16 -4 -4 -15 0 -24 9 -18 18 -8 23 17 7z
m-120 -20 c0 -5 -5 -10 -11 -10 -5 0 -7 5 -4 10 3 6 8 10 11 10 2 0 4 -4 4
-10z m40 -10 c0 -5 -7 -10 -15 -10 -8 0 -15 5 -15 10 0 6 7 10 15 10 8 0 15
-4 15 -10z m55 0 c-3 -5 -13 -10 -21 -10 -8 0 -12 5 -9 10 3 6 13 10 21 10 8
0 12 -4 9 -10z m103 -32 c17 -18 38 -51 47 -72 9 -22 28 -56 41 -75 13 -20 24
-38 24 -41 0 -3 -16 -12 -35 -19 -19 -7 -40 -21 -45 -32 -16 -29 -40 -24 -40
9 0 15 -5 34 -10 42 -7 10 -8 -1 -3 -35 6 -46 5 -49 -10 -36 -10 7 -17 26 -17
41 0 15 -9 56 -19 91 -22 72 -29 128 -17 147 13 22 51 13 84 -20z m-184 -17
c-4 -9 -9 -47 -12 -84 -6 -88 -31 -120 -97 -123 -37 -3 -47 1 -56 18 -17 32
-2 83 43 140 61 80 74 89 104 76 17 -8 23 -16 18 -27z m80 -27 c3 -28 13 -67
21 -87 8 -20 15 -54 15 -74 0 -21 7 -49 16 -61 14 -20 14 -23 -3 -28 -10 -3
-30 -11 -45 -19 -22 -11 -29 -11 -38 0 -16 20 -30 72 -39 154 -12 96 9 172 44
169 20 -2 24 -10 29 -54z m-924 -56 c93 -39 105 -47 111 -73 4 -17 14 -45 24
-63 16 -32 16 -34 -7 -67 -28 -42 -80 -69 -128 -68 -36 0 -98 27 -135 58 l-20
17 20 -8 c11 -4 34 -9 50 -11 19 -2 9 5 -30 20 -55 22 -61 27 -87 83 -15 32
-28 64 -28 69 0 6 18 30 40 54 47 51 42 51 190 -11z m177 -42 c-4 -9 -11 -16
-17 -16 -11 0 -14 33 -3 44 11 10 26 -11 20 -28z m51 1 c2 -12 -1 -15 -12 -11
-19 7 -22 38 -3 32 6 -3 13 -12 15 -21z m114 -1 c83 -16 114 -36 139 -89 10
-23 30 -62 44 -86 32 -57 34 -127 4 -165 -24 -31 -39 -26 -39 14 0 24 -5 31
-27 36 -26 7 -132 99 -182 157 -39 46 -52 148 -18 147 7 -1 42 -7 79 -14z
m-582 -19 c0 -7 11 -36 25 -65 l24 -53 -28 17 c-33 19 -60 62 -54 84 3 8 6 21
9 28 5 15 24 6 24 -11z m-565 -66 c36 -12 86 -24 110 -28 47 -6 76 -29 76 -59
-1 -48 -19 -152 -29 -171 -6 -11 -25 -33 -43 -47 -59 -50 -185 -27 -262 48
-56 54 -70 102 -52 185 7 33 10 63 6 67 -3 3 12 21 34 39 l39 33 28 -23 c15
-13 57 -33 93 -44z m379 52 c50 3 101 8 114 12 20 7 22 4 22 -25 0 -24 9 -41
37 -66 20 -19 41 -34 45 -34 18 0 6 -59 -22 -103 -16 -26 -39 -65 -50 -87 -15
-29 -34 -47 -70 -65 -27 -14 -57 -25 -67 -25 -10 0 -31 -7 -47 -15 -27 -14
-30 -14 -42 4 -8 10 -25 22 -40 25 -26 7 -27 9 -21 64 4 37 3 51 -3 42 -5 -8
-10 -36 -10 -62 0 -57 -14 -69 -34 -30 -15 29 -12 93 10 210 5 26 2 38 -16 57
l-22 23 27 18 c14 9 33 30 41 46 13 25 17 27 36 17 13 -7 54 -9 112 -6z m580
-24 c-8 -14 -21 -10 -28 7 -10 25 5 40 20 19 7 -10 11 -22 8 -26z m56 10 c0
-10 -6 -19 -14 -19 -19 0 -30 31 -14 41 17 10 28 2 28 -22z m16 -47 c-14 -14
-16 -14 -16 -1 0 20 23 44 29 28 2 -6 -4 -18 -13 -27z m-40 7 c10 -17 -13 -36
-27 -22 -12 12 -4 33 11 33 5 0 12 -5 16 -11z m-1196 -15 c0 -8 -4 -12 -10 -9
-5 3 -10 10 -10 16 0 5 5 9 10 9 6 0 10 -7 10 -16z m1816 -296 c-5 -195 -12
-317 -18 -323 -7 -7 -9 42 -4 159 3 93 6 238 6 323 0 108 3 153 11 153 9 0 10
-81 5 -312z m-479 172 c14 -25 40 -67 59 -95 44 -67 56 -102 48 -139 -11 -51
-41 -85 -82 -92 -20 -4 -52 -15 -71 -25 -19 -10 -39 -15 -45 -12 -40 24 -66
50 -77 76 -17 40 -17 160 1 285 14 101 14 102 44 111 28 8 34 5 64 -28 18 -20
44 -56 59 -81z m-1377 80 c0 -16 -4 -30 -10 -30 -11 0 -14 43 -3 53 11 12 13
8 13 -23z m33 -11 c-4 -13 -9 -17 -16 -10 -12 12 -1 45 12 37 5 -3 7 -15 4
-27z m906 -50 l54 -31 -77 -77 c-42 -42 -82 -83 -87 -91 -21 -31 -3 133 20
183 12 26 25 47 29 47 4 0 31 -14 61 -31z m251 -73 c-7 -34 -12 -95 -11 -136
0 -72 0 -74 -14 -48 -34 61 -28 172 13 257 16 34 17 34 20 12 2 -14 -2 -52 -8
-85z m-1173 72 c-3 -8 -6 -5 -6 6 -1 11 2 17 5 13 3 -3 4 -12 1 -19z m1486
-96 c19 -8 27 -19 27 -36 0 -14 -4 -27 -9 -30 -14 -9 -70 42 -91 85 -28 53
-25 58 13 23 17 -17 44 -36 60 -42z m-554 -24 c-132 -129 -162 -188 -152 -299
l4 -44 -23 24 c-16 16 -19 25 -10 28 14 6 16 59 2 68 -17 11 -12 160 7 200 9
19 19 35 23 35 3 0 4 -35 2 -77 l-3 -78 23 29 c37 46 190 196 201 196 5 0 -28
-37 -74 -82z m-923 42 c-3 -17 -1 -42 4 -58 9 -25 9 -26 -5 -8 -17 23 -20 96
-4 96 7 0 9 -11 5 -30z m93 -95 c31 -21 38 -31 31 -40 -8 -10 -3 -26 20 -61
47 -75 35 -86 -26 -21 -55 59 -95 127 -108 182 l-7 30 25 -31 c13 -16 43 -43
65 -59z m297 -12 c18 -24 17 -41 -2 -60 -10 -11 -14 -25 -10 -42 14 -55 11
-211 -3 -211 -6 0 -23 12 -38 26 -15 14 -21 23 -12 21 11 -4 20 3 28 19 7 16
7 24 0 24 -6 0 -8 9 -4 20 10 31 -3 24 -21 -12 -9 -18 -18 -35 -20 -37 -3 -3
-22 13 -44 34 -48 47 -50 68 -12 135 20 37 33 50 50 50 12 0 33 11 45 24 27
30 27 30 43 9z m329 -74 c4 -33 5 -63 2 -65 -3 -3 -39 12 -81 34 -74 38 -85
52 -42 52 12 0 39 9 61 19 22 11 43 20 47 20 3 1 9 -26 13 -60z m-542 39 c20
-15 34 -62 29 -101 -4 -29 -22 -28 -22 1 0 10 -11 34 -25 55 -33 48 -22 74 18
45z m67 -28 c-6 -11 -15 -20 -20 -20 -6 0 -10 9 -10 20 0 13 7 20 20 20 18 0
19 -3 10 -20z m262 -15 c-5 -36 -7 -39 -27 -32 -15 6 -21 48 -8 61 17 17 38 0
35 -29z m-101 -28 c-8 -8 -11 -5 -11 9 0 27 14 41 18 19 2 -9 -1 -22 -7 -28z
m44 13 c0 -7 -6 -15 -12 -17 -8 -3 -13 4 -13 17 0 13 5 20 13 18 6 -3 12 -11
12 -18z m628 -22 c-3 -30 -13 -50 -32 -67 -16 -15 -20 -21 -8 -17 52 18 53 18
33 2 -11 -9 -23 -16 -28 -16 -4 0 -8 -5 -8 -10 0 -7 6 -7 19 0 27 14 41 13 41
-4 0 -8 -17 -20 -37 -27 -60 -19 -106 -40 -101 -45 3 -2 37 7 76 20 65 22 72
23 72 8 0 -9 -18 -37 -41 -62 -22 -25 -54 -64 -70 -88 -17 -23 -33 -40 -37
-38 -4 2 -29 0 -56 -5 -27 -5 -51 -8 -53 -6 -7 7 80 161 137 243 34 47 58 89
55 92 -6 7 -17 -8 -98 -127 -31 -47 -69 -112 -84 -143 -27 -59 -43 -67 -43
-20 0 22 2 24 11 12 8 -11 9 4 4 55 -11 107 -11 128 1 132 6 2 11 -11 12 -30
1 -18 6 -44 11 -58 8 -18 9 -9 4 39 -7 77 10 84 25 10 l11 -53 -4 59 c-6 86
24 132 40 64 l8 -33 4 29 c4 22 7 26 14 15 7 -11 9 -10 9 7 0 27 81 102 112
104 3 0 4 -19 1 -42z m-432 -13 c90 -46 112 -66 90 -88 -8 -8 -17 -5 -33 10
-13 11 -52 35 -88 53 -76 38 -92 49 -84 61 9 15 20 11 115 -36z m-225 -32
c-11 -11 -19 6 -11 24 8 17 8 17 12 0 3 -10 2 -21 -1 -24z m59 27 c7 -12 -12
-40 -26 -40 -5 0 -9 11 -9 25 0 25 23 35 35 15z m117 -27 c88 -46 132 -88 123
-117 -19 -60 -18 -77 10 -106 24 -25 53 -106 41 -117 -2 -2 -22 0 -44 6 -25 7
-58 29 -91 62 -58 57 -67 58 -19 3 31 -36 32 -37 8 -29 -43 13 -208 95 -220
110 -8 10 -10 37 -5 90 l7 75 40 0 c34 0 40 4 49 30 6 17 15 30 21 30 6 0 42
-17 80 -37z m-351 -66 c12 -22 12 -22 -10 -3 -11 11 -21 23 -21 28 0 14 19 -1
31 -25z m90 -20 c-10 -9 -11 -8 -5 6 3 10 9 15 12 12 3 -3 0 -11 -7 -18z m447
-71 c38 -52 39 -62 12 -76 -17 -9 -24 -7 -40 12 -27 31 -34 62 -20 87 6 12 12
21 14 21 1 0 17 -20 34 -44z m19 12 c-3 -8 -6 -5 -6 6 -1 11 2 17 5 13 3 -3 4
-12 1 -19z m4 -145 c12 -33 2 -70 -11 -38 -10 23 -13 65 -5 65 3 0 10 -12 16
-27z m119 -28 c0 -5 -93 -35 -97 -31 -2 2 -1 9 2 17 3 9 22 14 50 15 25 1 45
0 45 -1z"/>
<path d="M2184 2741 c8 -13 66 -44 72 -39 2 3 -15 15 -38 28 -22 13 -38 18
-34 11z"/>
<path d="M2247 2559 c-26 -17 -47 -33 -47 -36 0 -5 3 -3 69 39 25 15 40 28 35
28 -6 0 -32 -14 -57 -31z"/>
<path d="M2240 2448 c-39 -37 -46 -46 -25 -35 32 16 92 74 84 81 -2 2 -29 -19
-59 -46z"/>
<path d="M2480 2522 c0 -17 4 -34 10 -37 6 -4 7 6 3 27 -8 44 -13 48 -13 10z"/>
<path d="M2431 2499 c1 -19 5 -45 9 -59 6 -16 7 -6 3 30 -7 63 -13 80 -12 29z"/>
<path d="M2490 2361 c0 -6 4 -13 10 -16 6 -3 7 1 4 9 -7 18 -14 21 -14 7z"/>
<path d="M2630 2385 c-7 -9 -11 -18 -8 -20 3 -3 11 1 18 10 7 9 11 18 8 20 -3
3 -11 -1 -18 -10z"/>
<path d="M2160 2279 c-24 -7 -23 -7 6 -8 17 -1 45 -6 62 -12 17 -6 36 -9 41
-7 21 7 -85 34 -109 27z"/>
<path d="M2310 2249 c0 -5 5 -7 10 -4 6 3 10 8 10 11 0 2 -4 4 -10 4 -5 0 -10
-5 -10 -11z"/>
<path d="M2138 2233 c6 -2 18 -2 25 0 6 3 1 5 -13 5 -14 0 -19 -2 -12 -5z"/>
<path d="M1042 2210 c0 -14 2 -19 5 -12 2 6 2 18 0 25 -3 6 -5 1 -5 -13z"/>
<path d="M1070 2195 c-6 -15 -8 -30 -6 -33 3 -3 10 8 16 23 6 15 8 30 6 33 -3
3 -10 -8 -16 -23z"/>
<path d="M1110 2113 c-45 -88 -44 -87 -32 -79 14 9 84 146 74 146 -4 0 -23
-30 -42 -67z"/>
<path d="M993 2115 c0 -27 2 -38 4 -22 2 15 2 37 0 50 -2 12 -4 0 -4 -28z"/>
<path d="M840 2135 c-7 -8 -8 -15 -2 -15 5 0 15 7 22 15 7 8 8 15 2 15 -5 0
-15 -7 -22 -15z"/>
<path d="M855 2100 c-3 -5 -1 -10 4 -10 6 0 11 5 11 10 0 6 -2 10 -4 10 -3 0
-8 -4 -11 -10z"/>
<path d="M983 2010 c0 -30 2 -43 4 -27 2 15 2 39 0 55 -2 15 -4 2 -4 -28z"/>
<path d="M887 1873 c-2 -5 0 -21 4 -38 7 -29 7 -29 8 8 1 35 -3 46 -12 30z"/>
<path d="M1944 2149 c-19 -22 -19 -22 4 -10 12 6 22 16 22 21 0 15 -5 12 -26
-11z"/>
<path d="M1987 2105 c-24 -50 -20 -58 4 -12 11 22 19 41 17 43 -3 2 -12 -12
-21 -31z"/>
<path d="M2070 2153 c0 -14 60 -86 67 -79 2 2 -5 15 -16 28 -11 12 -27 32 -35
43 -9 11 -16 15 -16 8z"/>
<path d="M2080 2066 c0 -2 7 -7 16 -10 8 -3 12 -2 9 4 -6 10 -25 14 -25 6z"/>
<path d="M524 1917 c89 -58 140 -94 196 -134 36 -26 57 -37 46 -25 -28 32
-186 143 -226 158 -24 10 -29 10 -16 1z"/>
<path d="M658 1764 c24 -14 46 -24 48 -21 6 6 -63 47 -79 47 -7 0 7 -12 31
-26z"/>
<path d="M491 1710 c-7 -4 18 -10 55 -14 36 -4 79 -13 94 -21 39 -20 110 -31
110 -16 0 6 -13 11 -28 11 -16 0 -53 8 -83 18 -65 23 -132 33 -148 22z"/>
<path d="M420 1653 c0 -4 5 -15 10 -23 8 -13 10 -13 10 2 0 9 -4 20 -10 23 -5
3 -10 3 -10 -2z"/>
<path d="M452 1640 c0 -14 2 -19 5 -12 2 6 2 18 0 25 -3 6 -5 1 -5 -13z"/>
<path d="M578 1603 c12 -2 32 -2 45 0 12 2 2 4 -23 4 -25 0 -35 -2 -22 -4z"/>
<path d="M2132 1960 c0 -14 2 -19 5 -12 2 6 2 18 0 25 -3 6 -5 1 -5 -13z"/>
<path d="M2070 1925 c-11 -13 -10 -14 4 -9 9 3 16 10 16 15 0 13 -6 11 -20 -6z"/>
<path d="M2273 1900 c-13 -5 -23 -14 -23 -19 0 -5 11 -4 25 2 14 7 25 15 25
20 0 8 2 8 -27 -3z"/>
<path d="M2341 1774 c0 -11 3 -14 6 -6 3 7 2 16 -1 19 -3 4 -6 -2 -5 -13z"/>
<path d="M2680 1835 c-36 -13 -60 -24 -54 -24 19 -2 113 29 119 39 3 6 5 9 3
9 -2 -1 -32 -12 -68 -24z"/>
<path d="M2010 1820 c-9 -6 -10 -10 -3 -10 6 0 15 5 18 10 8 12 4 12 -15 0z"/>
<path d="M2011 1773 c-17 -21 -31 -42 -31 -47 0 -6 3 -6 8 0 4 5 23 26 41 47
19 20 30 37 24 37 -6 0 -25 -17 -42 -37z"/>
<path d="M1990 1662 c0 -12 19 -26 26 -19 2 2 -2 10 -11 17 -9 8 -15 8 -15 2z"/>
<path d="M1976 1627 c3 -10 9 -15 12 -12 3 3 0 11 -7 18 -10 9 -11 8 -5 -6z"/>
<path d="M2190 1775 c0 -5 11 -28 25 -50 13 -22 24 -35 25 -30 0 6 -11 28 -25
50 -13 22 -24 36 -25 30z"/>
<path d="M2152 1735 c0 -16 2 -22 5 -12 2 9 2 23 0 30 -3 6 -5 -1 -5 -18z"/>
<path d="M2271 1603 c0 -6 -4 -20 -7 -30 -5 -14 -4 -15 5 -7 7 7 11 20 8 30
-3 11 -5 14 -6 7z"/>
<path d="M2150 1570 c0 -5 5 -10 10 -10 6 0 10 5 10 10 0 6 -4 10 -10 10 -5 0
-10 -4 -10 -10z"/>
<path d="M1552 1730 c0 -14 2 -19 5 -12 2 6 2 18 0 25 -3 6 -5 1 -5 -13z"/>
<path d="M1586 1720 c4 -19 10 -44 15 -55 l8 -20 0 20 c0 11 -7 36 -15 55
l-14 35 6 -35z"/>
<path d="M1611 1720 c0 -8 4 -24 9 -35 5 -13 9 -14 9 -5 0 8 -4 24 -9 35 -5
13 -9 14 -9 5z"/>
<path d="M1685 1670 c12 -40 26 -59 19 -25 -4 17 -11 35 -16 40 -7 7 -8 1 -3
-15z"/>
<path d="M1490 1676 c0 -12 29 -76 34 -76 3 0 -2 17 -11 38 -16 38 -23 50 -23
38z"/>
<path d="M1710 1584 c0 -10 5 -26 10 -34 8 -11 9 -7 4 15 -8 37 -14 45 -14 19z"/>
<path d="M1590 1386 c0 -11 49 -109 49 -99 1 15 -37 103 -44 103 -3 0 -5 -2
-5 -4z"/>
<path d="M1731 1334 c0 -11 3 -14 6 -6 3 7 2 16 -1 19 -3 4 -6 -2 -5 -13z"/>
<path d="M1014 1681 c3 -4 30 -11 59 -14 30 -4 74 -14 98 -22 24 -9 39 -11 34
-6 -17 17 -200 58 -191 42z"/>
<path d="M1050 1635 c0 -3 17 -16 38 -30 20 -13 57 -41 82 -62 32 -27 38 -29
20 -10 -26 30 -123 107 -133 107 -4 0 -7 -2 -7 -5z"/>
<path d="M1230 1620 c8 -5 20 -10 25 -10 6 0 3 5 -5 10 -8 5 -19 10 -25 10 -5
0 -3 -5 5 -10z"/>
<path d="M1000 1591 c0 -46 215 -251 264 -251 5 0 -10 13 -35 28 -66 42 -166
139 -195 189 -26 42 -34 51 -34 34z"/>
<path d="M1100 1514 c8 -8 23 -20 34 -26 19 -10 18 -8 -3 16 -26 27 -53 37
-31 10z"/>
<path d="M1356 1494 c-5 -14 -4 -15 9 -4 17 14 19 20 6 20 -5 0 -12 -7 -15
-16z"/>
<path d="M2565 1610 c-19 -8 -19 -9 3 -9 12 -1 22 4 22 9 0 6 -1 10 -2 9 -2 0
-12 -4 -23 -9z"/>
<path d="M2460 1600 c18 -12 30 -13 30 -2 0 4 -10 9 -22 9 -18 2 -20 0 -8 -7z"/>
<path d="M876 1569 c-2 -8 -11 -35 -20 -62 -8 -26 -11 -45 -6 -42 12 7 43 105
36 112 -3 3 -8 0 -10 -8z"/>
<path d="M917 1550 c-4 -19 -11 -63 -17 -97 -6 -34 -17 -84 -25 -110 -8 -26
-14 -55 -14 -63 1 -26 38 101 55 188 8 45 14 90 11 100 -2 10 -6 2 -10 -18z"/>
<path d="M801 1532 c-6 -12 -11 -29 -11 -39 1 -11 7 -4 16 16 16 37 12 55 -5
23z"/>
<path d="M610 1282 c0 -12 19 -26 26 -19 2 2 -2 10 -11 17 -9 8 -15 8 -15 2z"/>
<path d="M2640 1553 c0 -16 4 -35 10 -43 6 -10 8 -1 7 28 -2 46 -17 59 -17 15z"/>
<path d="M499 1304 c-7 -21 -8 -41 0 -69 10 -40 10 -40 5 -4 -2 20 0 49 6 64
6 15 8 30 6 33 -3 3 -10 -8 -17 -24z"/>
<path d="M541 1270 c-1 -8 -4 -26 -7 -40 -5 -19 -4 -22 5 -14 7 6 11 24 8 40
-2 16 -5 22 -6 14z"/>
<path d="M2526 1375 c9 -14 20 -25 25 -25 5 0 2 11 -7 25 -9 14 -20 25 -25 25
-5 0 -2 -11 7 -25z"/>
<path d="M2490 1368 c1 -16 29 -89 29 -77 2 30 -11 79 -20 79 -5 0 -9 -1 -9
-2z"/>
<path d="M2587 1233 c-12 -12 -7 -22 8 -17 8 4 15 10 15 15 0 11 -14 12 -23 2z"/>
<path d="M2596 1201 c-4 -5 3 -7 14 -4 23 6 26 13 6 13 -8 0 -17 -4 -20 -9z"/>
<path d="M2297 1345 c-10 -14 -14 -25 -9 -25 6 0 17 11 26 25 21 32 7 32 -17
0z"/>
<path d="M2232 1251 c-6 -17 -9 -31 -6 -31 7 0 25 52 20 57 -2 2 -8 -10 -14
-26z"/>
<path d="M2283 1225 c-3 -9 -3 -18 -1 -21 3 -3 8 4 11 16 6 23 -1 27 -10 5z"/>
<path d="M2406 1348 c-3 -13 -5 -43 -5 -68 1 -41 2 -39 10 20 8 66 6 89 -5 48z"/>
<path d="M1336 1192 c15 -14 89 -32 125 -31 27 1 23 3 -19 10 -29 5 -62 14
-72 19 -23 12 -48 13 -34 2z"/>
<path d="M1543 1193 c15 -2 37 -2 50 0 12 2 0 4 -28 4 -27 0 -38 -2 -22 -4z"/>
<path d="M1385 1125 c17 -8 44 -14 60 -14 24 0 20 3 -20 14 -63 18 -79 17 -40
0z"/>
<path d="M1626 1114 c-23 -23 -20 -30 4 -9 11 10 20 20 20 22 0 7 -9 2 -24
-13z"/>
<path d="M1801 1226 c10 -8 89 -13 83 -5 -3 5 -24 9 -46 9 -23 0 -39 -2 -37
-4z"/>
<path d="M1855 1189 c28 -4 65 -12 84 -18 53 -16 48 -5 -5 13 -26 9 -66 15
-88 15 l-41 -1 50 -9z"/>
<path d="M1861 1087 c46 -42 138 -100 125 -78 -4 6 -24 20 -44 30 -20 11 -53
35 -71 55 -19 20 -40 36 -45 36 -6 -1 10 -20 35 -43z"/>
<path d="M1910 1101 c0 -10 30 -24 37 -17 3 2 -5 9 -16 16 -12 6 -21 7 -21 1z"/>
<path d="M568 1163 c7 -3 16 -2 19 1 4 3 -2 6 -13 5 -11 0 -14 -3 -6 -6z"/>
<path d="M615 1116 c33 -8 87 -24 119 -35 33 -12 61 -19 63 -17 8 8 -146 58
-192 62 l-50 4 60 -14z"/>
<path d="M565 1080 c11 -5 29 -8 40 -8 16 0 15 2 -5 8 -34 11 -60 11 -35 0z"/>
<path d="M596 1031 c12 -11 84 -34 89 -29 3 2 -18 12 -47 21 -28 9 -47 12 -42
8z"/>
<path d="M550 997 c0 -20 70 -77 130 -107 54 -26 45 -18 -33 34 -32 22 -67 50
-78 64 -13 18 -19 20 -19 9z"/>
<path d="M710 990 c8 -5 20 -10 25 -10 6 0 3 5 -5 10 -8 5 -19 10 -25 10 -5 0
-3 -5 5 -10z"/>
<path d="M760 866 c0 -2 9 -6 20 -9 11 -3 18 -1 14 4 -5 9 -34 13 -34 5z"/>
<path d="M1011 1139 c-1 -37 -10 -91 -20 -122 -22 -63 -20 -73 5 -26 21 42 36
147 25 184 -8 25 -9 19 -10 -36z"/>
<path d="M1177 1125 c-4 -27 -21 -75 -37 -105 -27 -50 -28 -53 -5 -25 34 41
57 105 53 146 -3 31 -4 30 -11 -16z"/>
<path d="M1088 1115 c-2 -19 0 -35 4 -35 4 0 8 16 8 35 0 19 -2 35 -4 35 -2 0
-6 -16 -8 -35z"/>
<path d="M1043 957 c-26 -37 -46 -87 -35 -87 7 0 64 111 59 116 -1 2 -12 -12
-24 -29z"/>
<path d="M1067 890 c-9 -11 -13 -20 -8 -20 4 0 16 9 26 20 10 11 14 20 9 20
-5 0 -17 -9 -27 -20z"/>
<path d="M1721 1054 c1 -16 5 -40 9 -54 6 -17 7 -9 3 25 -6 56 -14 74 -12 29z"/>
<path d="M1751 1060 c0 -8 4 -24 9 -35 l9 -20 0 20 c0 11 -4 27 -9 35 -9 13
-10 13 -9 0z"/>
<path d="M1814 868 c3 -9 8 -33 12 -52 3 -20 10 -39 16 -42 11 -7 1 39 -19 81
-7 17 -11 22 -9 13z"/>
<path d="M1730 813 c0 -27 23 -119 33 -128 7 -7 8 -4 3 8 -3 10 -9 37 -12 60
-7 42 -23 84 -24 60z"/>
<path d="M1775 730 c4 -14 12 -29 17 -35 7 -7 8 -2 3 15 -4 14 -12 30 -17 35
-7 7 -8 2 -3 -15z"/>
<path d="M1810 731 c0 -6 4 -13 10 -16 6 -3 7 1 4 9 -7 18 -14 21 -14 7z"/>
<path d="M570 853 c0 -13 27 -49 33 -43 3 3 -3 16 -14 29 -10 13 -19 19 -19
14z"/>
<path d="M810 796 c0 -9 50 -12 62 -5 8 6 -1 9 -24 9 -21 0 -38 -2 -38 -4z"/>
<path d="M820 752 c-14 -2 -29 -8 -35 -14 -7 -7 1 -8 25 -3 51 11 60 24 10 17z"/>
<path d="M1511 540 c-35 -11 -69 -25 -75 -31 -8 -9 -6 -10 9 -4 11 4 44 13 73
20 30 7 59 18 65 24 14 14 5 13 -72 -9z"/>
<path d="M1475 490 c-17 -7 -15 -9 13 -9 17 -1 32 4 32 9 0 12 -17 12 -45 0z"/>
<path d="M1460 450 c0 -5 6 -10 14 -10 8 0 18 5 21 10 3 6 -3 10 -14 10 -12 0
-21 -4 -21 -10z"/>
<path d="M1395 420 c-7 -12 12 -12 40 0 18 8 17 9 -7 9 -15 1 -30 -3 -33 -9z"/>
<path d="M941 615 c-1 -20 34 -105 43 -105 2 0 -4 21 -14 48 -9 26 -20 54 -23
62 -4 11 -6 9 -6 -5z"/>
<path d="M980 594 c0 -6 7 -19 16 -30 14 -18 14 -18 3 6 -14 31 -19 36 -19 24z"/>
<path d="M1160 443 c0 -12 38 -48 45 -41 3 2 -6 15 -20 28 -14 13 -25 19 -25
13z"/>
<path d="M1200 435 c7 -8 17 -15 22 -15 5 0 3 7 -6 15 -8 8 -18 15 -22 15 -3
0 -1 -7 6 -15z"/>
<path d="M535 705 c-16 -17 -43 -41 -59 -53 -23 -17 -26 -25 -17 -36 10 -12
17 -9 43 14 17 16 36 26 42 23 6 -3 8 -2 3 2 -4 5 4 21 18 35 20 21 23 29 13
36 -9 7 -22 0 -43 -21z"/>
<path d="M2618 704 c-4 -5 -3 -16 3 -24 18 -29 10 -39 -25 -33 -47 7 -55 -13
-8 -22 20 -4 44 -13 54 -21 22 -21 35 1 15 24 -8 9 -19 33 -24 52 -5 19 -12
30 -15 24z"/>
<path d="M634 646 c1 -18 4 -22 14 -14 9 8 9 14 1 24 -16 19 -17 18 -15 -10z"/>
<path d="M579 633 c-10 -2 -19 -13 -22 -25 -6 -19 -5 -19 19 3 20 19 30 32 22
28 -2 -1 -10 -3 -19 -6z"/>
<path d="M2466 552 c-3 -6 1 -13 10 -16 9 -3 14 -12 11 -19 -3 -8 8 -19 25
-26 26 -12 32 -11 46 4 10 10 12 15 5 11 -17 -10 -63 15 -61 33 3 17 -27 28
-36 13z"/>
<path d="M670 543 c0 -5 -14 -23 -31 -41 -23 -25 -28 -37 -20 -45 6 -6 12 -9
14 -6 2 2 17 22 35 45 29 38 32 54 10 54 -4 0 -8 -3 -8 -7z"/>
<path d="M2426 522 c-7 -12 57 -89 71 -85 8 3 1 20 -20 48 -32 45 -42 51 -51
37z"/>
<path d="M857 459 c3 -10 9 -16 14 -13 13 8 11 21 -5 27 -10 4 -12 0 -9 -14z"/>
<path d="M2338 453 c7 -3 16 -2 19 1 4 3 -2 6 -13 5 -11 0 -14 -3 -6 -6z"/>
<path d="M794 406 c-21 -40 -22 -66 -3 -66 6 0 8 4 5 8 -3 5 6 25 19 45 29 42
29 43 13 50 -8 2 -22 -13 -34 -37z"/>
<path d="M690 420 c-9 -6 -10 -10 -3 -10 6 0 15 5 18 10 8 12 4 12 -15 0z"/>
<path d="M2282 422 c-9 -3 -7 -12 8 -32 11 -15 23 -37 28 -49 5 -14 11 -18 21
-12 11 7 11 13 1 32 -22 42 -45 66 -58 61z"/>
<path d="M2340 423 c0 -6 8 -17 18 -24 16 -13 16 -13 2 6 -8 11 -16 22 -17 24
-2 2 -3 0 -3 -6z"/>
<path d="M872 359 c-13 -23 -19 -39 -14 -35 14 8 53 76 44 76 -4 0 -18 -19
-30 -41z"/>
<path d="M2394 380 c0 -13 4 -16 10 -10 7 7 7 13 0 20 -6 6 -10 3 -10 -10z"/>
<path d="M963 300 c-14 -33 -17 -50 -10 -53 12 -4 57 83 50 96 -9 16 -20 5
-40 -43z"/>
<path d="M2133 343 c-9 -3 -5 -19 10 -51 27 -59 26 -57 36 -46 11 12 -31 102
-46 97z"/>
<path d="M1030 316 c0 -9 -6 -19 -13 -22 -15 -6 -11 -60 6 -71 7 -4 8 6 4 31
-3 20 -2 34 2 31 5 -2 14 1 20 9 9 10 8 16 -4 26 -12 10 -15 10 -15 -4z"/>
<path d="M1263 223 c-11 -49 -19 -90 -17 -92 11 -13 33 28 43 82 7 34 14 70
17 80 3 10 0 17 -9 17 -9 0 -20 -29 -34 -87z"/>
<path d="M2236 283 c-6 -14 -5 -15 5 -6 7 7 10 15 7 18 -3 3 -9 -2 -12 -12z"/>
<path d="M1968 284 c-11 -10 26 -104 40 -104 8 0 12 6 9 14 -3 8 -11 32 -18
55 -12 39 -19 48 -31 35z"/>
<path d="M1870 250 c0 -5 5 -10 11 -10 5 0 7 5 4 10 -3 6 -8 10 -11 10 -2 0
-4 -4 -4 -10z"/>
<path d="M1807 243 c-12 -19 4 -103 20 -103 11 0 12 9 7 38 -10 54 -20 77 -27
65z"/>
<path d="M1390 202 c0 -22 -3 -47 -6 -56 -4 -11 -1 -16 10 -16 11 0 16 9 17
28 1 15 2 38 3 51 0 13 -5 26 -11 28 -9 3 -13 -8 -13 -35z"/>
<path d="M1466 215 c4 -8 8 -15 10 -15 2 0 4 7 4 15 0 8 -4 15 -10 15 -5 0 -7
-7 -4 -15z"/>
<path d="M1560 220 c0 -15 43 -100 51 -100 4 0 11 9 14 20 8 26 21 25 35 -1 7
-11 13 -19 15 -17 9 8 35 78 30 78 -3 0 -10 -12 -16 -27 l-10 -27 -25 42 c-14
23 -29 42 -35 42 -12 0 -12 -17 1 -25 13 -8 13 -42 0 -50 -5 -3 -18 12 -27 35
-17 37 -33 53 -33 30z"/>
<path d="M1650 220 c0 -5 5 -10 10 -10 6 0 10 5 10 10 0 6 -4 10 -10 10 -5 0
-10 -4 -10 -10z"/>
<path d="M1700 219 c0 -5 5 -7 10 -4 6 3 10 8 10 11 0 2 -4 4 -10 4 -5 0 -10
-5 -10 -11z"/>
<path d="M2066 215 c-3 -8 -1 -15 4 -15 13 0 22 18 11 24 -5 3 -11 -1 -15 -9z"/>
<path d="M1861 204 c0 -11 3 -14 6 -6 3 7 2 16 -1 19 -3 4 -6 -2 -5 -13z"/>
<path d="M1445 189 c-4 -6 -5 -12 -2 -15 2 -3 7 2 10 11 7 17 1 20 -8 4z"/>
<path d="M1896 165 c-3 -8 -1 -15 4 -15 6 0 10 7 10 15 0 8 -2 15 -4 15 -2 0
-6 -7 -10 -15z"/>
<path d="M1202 148 c6 -18 28 -21 28 -4 0 9 -7 16 -16 16 -9 0 -14 -5 -12 -12z"/>
<path d="M1466 135 c-3 -8 -1 -15 4 -15 6 0 10 7 10 15 0 8 -2 15 -4 15 -2 0
-6 -7 -10 -15z"/>
</g>
</svg>
